<svg xmlns="http://www.w3.org/2000/svg">
    <symbol id="icon-logo-main" viewBox="0 0 107 32">
        <path fill="#fff" style="fill: var(--color1, #fff)" d="M9.414 25.571c-1.505 0-2.767-0.357-3.786-1.071s-1.786-1.686-2.3-2.914c-0.514-1.238-0.771-2.624-0.771-4.157 0-1.552 0.257-2.943 0.771-4.171s1.267-2.195 2.257-2.9c1-0.714 2.233-1.071 3.7-1.071 1.457 0 2.719 0.357 3.786 1.071 1.076 0.705 1.909 1.671 2.5 2.9 0.59 1.219 0.886 2.61 0.886 4.171 0 1.543-0.291 2.929-0.871 4.157s-1.4 2.2-2.457 2.914c-1.057 0.714-2.295 1.071-3.714 1.071zM1.971 32v-22.286h3.043v10.829h0.429v11.457h-3.471zM8.886 22.486c0.895 0 1.633-0.224 2.214-0.671s1.009-1.052 1.286-1.814c0.286-0.771 0.429-1.629 0.429-2.571 0-0.933-0.143-1.781-0.429-2.543-0.286-0.771-0.729-1.381-1.329-1.829-0.6-0.457-1.362-0.686-2.286-0.686-0.876 0-1.591 0.214-2.143 0.643-0.552 0.419-0.962 1.009-1.229 1.771-0.257 0.752-0.386 1.633-0.386 2.643 0 1 0.129 1.881 0.386 2.643 0.267 0.762 0.681 1.357 1.243 1.786 0.571 0.419 1.319 0.629 2.243 0.629zM25.477 25.571c-1.562 0-2.933-0.338-4.114-1.014s-2.105-1.614-2.771-2.814c-0.657-1.2-0.986-2.581-0.986-4.143 0-1.686 0.324-3.148 0.971-4.386 0.648-1.248 1.548-2.214 2.7-2.9s2.486-1.029 4-1.029c1.6 0 2.957 0.376 4.071 1.129 1.124 0.743 1.957 1.795 2.5 3.157s0.748 2.967 0.614 4.814h-3.414v-1.257c-0.009-1.676-0.305-2.9-0.886-3.671s-1.495-1.157-2.743-1.157c-1.41 0-2.457 0.438-3.143 1.314-0.686 0.867-1.029 2.138-1.029 3.814 0 1.562 0.343 2.771 1.029 3.629s1.686 1.286 3 1.286c0.848 0 1.576-0.186 2.186-0.557 0.619-0.381 1.095-0.929 1.429-1.643l3.4 1.029c-0.591 1.39-1.505 2.471-2.743 3.243-1.229 0.771-2.586 1.157-4.071 1.157zM20.163 18.386v-2.6h10.614v2.6h-10.614zM43.551 25.143c-1.019 0.191-2.019 0.271-3 0.243-0.971-0.019-1.843-0.195-2.614-0.529-0.771-0.343-1.357-0.881-1.757-1.614-0.352-0.667-0.538-1.348-0.557-2.043s-0.029-1.481-0.029-2.357v-13.414h3.429v13.214c0 0.619 0.005 1.162 0.014 1.629 0.019 0.467 0.119 0.848 0.3 1.143 0.343 0.571 0.891 0.89 1.643 0.957s1.61 0.029 2.571-0.114v2.886zM32.793 12.414v-2.7h10.757v2.7h-10.757zM46.011 25.143v-21h3.443v21h-3.443z"></path>
        <path fill="#f6b83d" style="fill: var(--color2, #f6b83d)" d="M63.708 10.679c-1.874-2.212-4.998-2.807-7.346-0.782s-2.678 5.413-0.835 7.809c1.181 1.535 4.205 4.38 6.227 6.228 0.672 0.614 1.008 0.921 1.41 1.044 0.346 0.106 0.741 0.106 1.087 0 0.402-0.123 0.738-0.43 1.41-1.044 2.022-1.848 5.046-4.693 6.227-6.228 1.843-2.396 1.553-5.804-0.835-7.809s-5.472-1.431-7.346 0.782z"></path>
        <path fill="#fff" style="fill: var(--color1, #fff)" d="M81.6 25.143l-5.6-15.429h3.443l3.886 11.186 3.871-11.186h3.457l-5.6 15.429h-3.457zM98.534 25.571c-1.562 0-2.933-0.338-4.114-1.014s-2.105-1.614-2.771-2.814c-0.657-1.2-0.986-2.581-0.986-4.143 0-1.686 0.324-3.148 0.971-4.386 0.648-1.248 1.548-2.214 2.7-2.9s2.486-1.029 4-1.029c1.6 0 2.957 0.376 4.071 1.129 1.124 0.743 1.957 1.795 2.5 3.157s0.748 2.967 0.614 4.814h-3.414v-1.257c-0.009-1.676-0.305-2.9-0.886-3.671s-1.495-1.157-2.743-1.157c-1.409 0-2.457 0.438-3.143 1.314-0.686 0.867-1.029 2.138-1.029 3.814 0 1.562 0.343 2.771 1.029 3.629s1.686 1.286 3 1.286c0.848 0 1.576-0.186 2.186-0.557 0.619-0.381 1.095-0.929 1.429-1.643l3.4 1.029c-0.59 1.39-1.505 2.471-2.743 3.243-1.229 0.771-2.586 1.157-4.071 1.157zM93.22 18.386v-2.6h10.614v2.6h-10.614z"></path>
    </symbol>
    <symbol id="icon-logo-header" viewBox="0 0 105 32">
        <path fill="#262626" style="fill: var(--color3, #262626)" d="M9.226 25.42c-1.475 0-2.711-0.35-3.71-1.050s-1.75-1.652-2.254-2.856c-0.504-1.213-0.756-2.571-0.756-4.074 0-1.521 0.252-2.884 0.756-4.088s1.241-2.151 2.212-2.842c0.98-0.7 2.189-1.050 3.626-1.050 1.428 0 2.665 0.35 3.71 1.050 1.055 0.691 1.871 1.638 2.45 2.842 0.579 1.195 0.868 2.557 0.868 4.088 0 1.512-0.285 2.87-0.854 4.074s-1.372 2.156-2.408 2.856c-1.036 0.7-2.249 1.050-3.64 1.050zM1.932 31.72v-21.84h2.982v10.612h0.42v11.228h-3.402zM8.708 22.396c0.877 0 1.601-0.219 2.17-0.658s0.989-1.031 1.26-1.778c0.28-0.756 0.42-1.596 0.42-2.52 0-0.915-0.14-1.745-0.42-2.492-0.28-0.756-0.714-1.353-1.302-1.792-0.588-0.448-1.335-0.672-2.24-0.672-0.859 0-1.559 0.21-2.1 0.63-0.541 0.411-0.943 0.989-1.204 1.736-0.252 0.737-0.378 1.601-0.378 2.59 0 0.98 0.126 1.843 0.378 2.59 0.261 0.747 0.667 1.33 1.218 1.75 0.56 0.411 1.293 0.616 2.198 0.616zM24.968 25.42c-1.531 0-2.875-0.331-4.032-0.994s-2.063-1.582-2.716-2.758c-0.644-1.176-0.966-2.529-0.966-4.060 0-1.652 0.317-3.085 0.952-4.298 0.635-1.223 1.517-2.17 2.646-2.842s2.436-1.008 3.92-1.008c1.568 0 2.898 0.369 3.99 1.106 1.101 0.728 1.918 1.759 2.45 3.094s0.733 2.907 0.602 4.718h-3.346v-1.232c-0.009-1.643-0.299-2.842-0.868-3.598s-1.465-1.134-2.688-1.134c-1.381 0-2.408 0.429-3.080 1.288-0.672 0.849-1.008 2.095-1.008 3.738 0 1.531 0.336 2.716 1.008 3.556s1.652 1.26 2.94 1.26c0.831 0 1.545-0.182 2.142-0.546 0.607-0.373 1.073-0.91 1.4-1.61l3.332 1.008c-0.579 1.363-1.475 2.422-2.688 3.178-1.204 0.756-2.534 1.134-3.99 1.134zM19.76 18.378v-2.548h10.402v2.548h-10.402zM42.68 25c-0.999 0.187-1.979 0.266-2.94 0.238-0.952-0.019-1.806-0.191-2.562-0.518-0.756-0.336-1.33-0.863-1.722-1.582-0.345-0.653-0.527-1.321-0.546-2.002s-0.028-1.451-0.028-2.31v-13.146h3.36v12.95c0 0.607 0.005 1.139 0.014 1.596 0.019 0.457 0.117 0.831 0.294 1.12 0.336 0.56 0.873 0.873 1.61 0.938s1.577 0.028 2.52-0.112v2.828zM32.138 12.526v-2.646h10.542v2.646h-10.542zM45.091 25v-20.58h3.374v20.58h-3.374z"></path>
        <path fill="#f6b83d" style="fill: var(--color2, #f6b83d)" d="M62.493 10.434c-1.839-2.172-4.907-2.756-7.211-0.767s-2.629 5.314-0.819 7.666c1.159 1.506 4.128 4.3 6.113 6.114 0.66 0.603 0.989 0.904 1.384 1.025 0.34 0.104 0.728 0.104 1.067 0 0.395-0.121 0.725-0.422 1.384-1.025 1.985-1.814 4.954-4.608 6.113-6.114 1.81-2.352 1.525-5.698-0.819-7.666s-5.372-1.405-7.211 0.767z"></path>
        <path fill="#262626" style="fill: var(--color3, #262626)" d="M80.048 25l-5.488-15.12h3.374l3.808 10.962 3.794-10.962h3.388l-5.488 15.12h-3.388zM96.644 25.42c-1.531 0-2.875-0.331-4.032-0.994s-2.063-1.582-2.716-2.758c-0.644-1.176-0.966-2.529-0.966-4.060 0-1.652 0.317-3.085 0.952-4.298 0.635-1.223 1.517-2.17 2.646-2.842s2.436-1.008 3.92-1.008c1.568 0 2.898 0.369 3.99 1.106 1.101 0.728 1.918 1.759 2.45 3.094s0.732 2.907 0.602 4.718h-3.346v-1.232c-0.010-1.643-0.299-2.842-0.868-3.598s-1.465-1.134-2.688-1.134c-1.381 0-2.408 0.429-3.080 1.288-0.672 0.849-1.008 2.095-1.008 3.738 0 1.531 0.336 2.716 1.008 3.556s1.652 1.26 2.94 1.26c0.831 0 1.545-0.182 2.142-0.546 0.607-0.373 1.073-0.91 1.4-1.61l3.332 1.008c-0.579 1.363-1.475 2.422-2.688 3.178-1.204 0.756-2.534 1.134-3.99 1.134zM91.436 18.378v-2.548h10.402v2.548h-10.402z"></path>
    </symbol>
    <symbol id="icon-logo-home" viewBox="0 0 106 32">
        <path fill="#fff" style="fill: var(--color1, #fff)" d="M9.38 25.42c-1.503 0-2.758-0.35-3.766-1.050s-1.769-1.652-2.282-2.856c-0.504-1.204-0.756-2.562-0.756-4.074s0.252-2.87 0.756-4.074c0.504-1.204 1.246-2.156 2.226-2.856s2.189-1.050 3.626-1.050c1.447 0 2.707 0.345 3.78 1.036s1.904 1.638 2.492 2.842c0.597 1.195 0.896 2.562 0.896 4.102 0 1.512-0.294 2.87-0.882 4.074-0.579 1.204-1.391 2.156-2.436 2.856s-2.263 1.050-3.654 1.050zM1.932 31.72v-21.84h3.36v10.36h0.476v11.48h-3.836zM8.764 22.032c0.821 0 1.493-0.205 2.016-0.616s0.91-0.961 1.162-1.652c0.252-0.7 0.378-1.475 0.378-2.324 0-0.84-0.131-1.605-0.392-2.296-0.261-0.7-0.667-1.255-1.218-1.666-0.541-0.42-1.237-0.63-2.086-0.63-0.793 0-1.437 0.191-1.932 0.574-0.485 0.383-0.84 0.919-1.064 1.61s-0.336 1.493-0.336 2.408c0 0.915 0.112 1.717 0.336 2.408s0.588 1.227 1.092 1.61c0.513 0.383 1.195 0.574 2.044 0.574zM25.341 25.42c-1.549 0-2.917-0.331-4.102-0.994-1.176-0.672-2.1-1.591-2.772-2.758-0.663-1.176-0.994-2.52-0.994-4.032 0-1.652 0.327-3.089 0.98-4.312s1.554-2.17 2.702-2.842c1.148-0.681 2.469-1.022 3.962-1.022 1.587 0 2.935 0.373 4.046 1.12s1.932 1.797 2.464 3.15 0.719 2.945 0.56 4.774h-3.766v-1.4c0-1.54-0.247-2.646-0.742-3.318-0.485-0.681-1.283-1.022-2.394-1.022-1.297 0-2.254 0.397-2.87 1.19-0.607 0.784-0.91 1.946-0.91 3.486 0 1.409 0.303 2.501 0.91 3.276 0.616 0.765 1.517 1.148 2.702 1.148 0.747 0 1.386-0.163 1.918-0.49s0.938-0.798 1.218-1.414l3.808 1.092c-0.569 1.381-1.47 2.455-2.702 3.22-1.223 0.765-2.562 1.148-4.018 1.148zM20.329 18.504v-2.828h10.024v2.828h-10.024zM43.3 25c-1.045 0.196-2.072 0.28-3.080 0.252-0.999-0.019-1.895-0.191-2.688-0.518-0.784-0.336-1.381-0.873-1.792-1.61-0.373-0.691-0.569-1.391-0.588-2.1-0.019-0.719-0.028-1.531-0.028-2.436v-12.908h3.808v12.684c0 0.588 0.005 1.12 0.014 1.596 0.019 0.467 0.117 0.84 0.294 1.12 0.336 0.532 0.873 0.821 1.61 0.868s1.554 0.009 2.45-0.112v3.164zM32.548 12.82v-2.94h10.752v2.94h-10.752zM45.829 25v-20.58h3.808v20.58h-3.808z"></path>
        <path fill="#fff" style="fill: var(--color1, #fff)" d="M63.493 10.434c-1.839-2.172-4.907-2.756-7.211-0.767s-2.629 5.314-0.819 7.666c1.159 1.506 4.128 4.3 6.113 6.114 0.66 0.603 0.989 0.904 1.384 1.025 0.34 0.104 0.728 0.104 1.067 0 0.395-0.121 0.725-0.422 1.384-1.025 1.985-1.814 4.954-4.608 6.113-6.114 1.81-2.352 1.525-5.698-0.819-7.666s-5.372-1.405-7.211 0.767z"></path>
        <path fill="#fff" style="fill: var(--color1, #fff)" d="M81.048 25l-5.488-15.12h3.374l3.808 10.962 3.794-10.962h3.388l-5.488 15.12h-3.388zM97.644 25.42c-1.531 0-2.875-0.331-4.032-0.994s-2.063-1.582-2.716-2.758c-0.644-1.176-0.966-2.529-0.966-4.060 0-1.652 0.317-3.085 0.952-4.298 0.635-1.223 1.517-2.17 2.646-2.842s2.436-1.008 3.92-1.008c1.568 0 2.898 0.369 3.99 1.106 1.101 0.728 1.918 1.759 2.45 3.094s0.732 2.907 0.602 4.718h-3.346v-1.232c-0.010-1.643-0.299-2.842-0.868-3.598s-1.466-1.134-2.688-1.134c-1.381 0-2.408 0.429-3.080 1.288-0.672 0.849-1.008 2.095-1.008 3.738 0 1.531 0.336 2.716 1.008 3.556s1.652 1.26 2.94 1.26c0.831 0 1.545-0.182 2.142-0.546 0.606-0.373 1.073-0.91 1.4-1.61l3.332 1.008c-0.579 1.363-1.475 2.422-2.688 3.178-1.204 0.756-2.534 1.134-3.99 1.134zM92.436 18.378v-2.548h10.402v2.548h-10.402z"></path>
    </symbol>
    <symbol id="icon-user" viewBox="0 0 32 32">
        <path fill="#f6b83d" style="fill: var(--color1, #f6b83d); stroke: var(--color1, #f6b83d)" stroke="#f6b83d" stroke-linejoin="round" stroke-linecap="round" stroke-miterlimit="4" stroke-width="2.6667" d="M16 20c-4.227 0-7.986 2.041-10.379 5.208-0.515 0.682-0.773 1.022-0.764 1.483 0.006 0.356 0.23 0.805 0.51 1.025 0.362 0.284 0.865 0.284 1.869 0.284h17.527c1.005 0 1.507 0 1.869-0.284 0.28-0.22 0.503-0.669 0.51-1.025 0.008-0.461-0.249-0.801-0.764-1.483-2.393-3.167-6.152-5.208-10.379-5.208z"></path>
        <path fill="#f6b83d" style="fill: var(--color1, #f6b83d); stroke: var(--color1, #f6b83d)" stroke="#f6b83d" stroke-linejoin="round" stroke-linecap="round" stroke-miterlimit="4" stroke-width="2.6667" d="M16 16c3.314 0 6-2.686 6-6s-2.686-6-6-6c-3.314 0-6 2.686-6 6s2.686 6 6 6z"></path>
    </symbol>
    <symbol id="icon-eye" viewBox="0 0 32 32">
        <path fill="none" stroke="#f6b83d" style="stroke: var(--color1, #f6b83d)" stroke-linejoin="round" stroke-linecap="round" stroke-miterlimit="4" stroke-width="2.9091" d="M1.332 16c0 0 5.333-10.667 14.667-10.667s14.667 10.667 14.667 10.667-5.333 10.667-14.667 10.667c-9.333 0-14.667-10.667-14.667-10.667z"></path>
        <path fill="none" stroke="#f6b83d" style="stroke: var(--color1, #f6b83d)" stroke-linejoin="round" stroke-linecap="round" stroke-miterlimit="4" stroke-width="2.9091" d="M16 20c2.209 0 4-1.791 4-4s-1.791-4-4-4c-2.209 0-4 1.791-4 4s1.791 4 4 4z"></path>
    </symbol>
    <symbol id="icon-eye-off" viewBox="0 0 32 32">
        <path fill="none" stroke="#f6b83d" style="stroke: var(--color1, #f6b83d)" stroke-linejoin="round" stroke-linecap="round" stroke-miterlimit="4" stroke-width="2.9091" d="M23.922 23.92c-2.279 1.737-5.055 2.7-7.92 2.747-9.333 0-14.667-10.667-14.667-10.667 1.659-3.091 3.959-5.791 6.747-7.92M13.202 5.653c0.918-0.215 1.857-0.322 2.8-0.32 9.333 0 14.667 10.667 14.667 10.667-0.809 1.514-1.775 2.94-2.88 4.253M18.828 18.827c-0.366 0.393-0.808 0.708-1.298 0.927s-1.020 0.336-1.557 0.346c-0.537 0.009-1.071-0.089-1.569-0.291s-0.951-0.5-1.33-0.88c-0.38-0.38-0.679-0.832-0.88-1.33s-0.3-1.032-0.29-1.569c0.009-0.537 0.127-1.067 0.346-1.557s0.534-0.932 0.927-1.298"></path>
        <path fill="none" stroke="#f6b83d" style="stroke: var(--color1, #f6b83d)" stroke-linejoin="round" stroke-linecap="round" stroke-miterlimit="4" stroke-width="2.9091" d="M1.335 1.333l29.333 29.333"></path>
    </symbol>
    <symbol id="icon-cross-small" viewBox="0 0 32 32">
        <path stroke-linejoin="round" stroke-linecap="round" stroke-miterlimit="4" stroke-width="2.9091" d="M25.333 6.667l-18.667 18.667M6.666 6.667l18.667 18.667"></path>
    </symbol>
    <symbol id="icon-check" viewBox="0 0 32 32">
        <path stroke-linejoin="round" stroke-linecap="round" stroke-miterlimit="4" stroke-width="2.1818" d="M26.667 9.333l-14.667 14.667-6.667-6.667"></path>
    </symbol>
    <symbol id="icon-search" viewBox="0 0 32 32">
        <path stroke-linejoin="round" stroke-linecap="round" stroke-miterlimit="4" stroke-width="3.5556" d="M14.667 25.333c5.891 0 10.667-4.776 10.667-10.667s-4.776-10.667-10.667-10.667c-5.891 0-10.667 4.776-10.667 10.667s4.776 10.667 10.667 10.667z"></path>
        <path stroke-linejoin="round" stroke-linecap="round" stroke-miterlimit="4" stroke-width="3.5556" d="M28.001 28l-5.8-5.8"></path>
    </symbol>
    <symbol id="icon-calendar-1" viewBox="0 0 32 32">
        <path stroke-linejoin="round" stroke-linecap="round" stroke-miterlimit="4" stroke-width="2.88" d="M25.333 5.333h-18.667c-1.473 0-2.667 1.194-2.667 2.667v18.667c0 1.473 1.194 2.667 2.667 2.667h18.667c1.473 0 2.667-1.194 2.667-2.667v-18.667c0-1.473-1.194-2.667-2.667-2.667z"></path>
        <path stroke-linejoin="round" stroke-linecap="round" stroke-miterlimit="4" stroke-width="2.88" d="M21.333 2.667v5.333"></path>
        <path stroke-linejoin="round" stroke-linecap="round" stroke-miterlimit="4" stroke-width="2.88" d="M10.667 2.667v5.333"></path>
        <path stroke-linejoin="round" stroke-linecap="round" stroke-miterlimit="4" stroke-width="2.88" d="M4 13.333h24"></path>
    </symbol>
    <symbol id="icon-star" viewBox="0 0 32 32">
        <path fill="#ffc531" style="fill: var(--color1, #ffc531); stroke: var(--color1, #ffc531)" stroke="#ffc531" stroke-linejoin="miter" stroke-linecap="butt" stroke-miterlimit="4" stroke-width="2.4" d="M19.6 9.395c0.318 0.603 0.898 1.024 1.57 1.141l7.6 1.313-5.375 5.535c-0.475 0.489-0.697 1.171-0.6 1.846l1.098 7.635-6.922-3.402-0.234-0.1c-0.476-0.169-0.996-0.169-1.473 0l-0.234 0.1-6.924 3.402 1.1-7.635c0.097-0.675-0.125-1.357-0.6-1.846l-5.377-5.535 7.602-1.313c0.672-0.116 1.252-0.538 1.57-1.141l3.6-6.822 3.6 6.822z"></path>
    </symbol>
    <symbol id="icon-chevron-down" viewBox="0 0 32 32">
        <path stroke-linejoin="round" stroke-linecap="round" stroke-miterlimit="4" stroke-width="3.5556" d="M8 12l8 8 8-8"></path>
    </symbol>
    <symbol id="icon-chevron-up" viewBox="0 0 32 32">
        <path stroke-linejoin="round" stroke-linecap="round" stroke-miterlimit="4" stroke-width="3.2" d="M8 20l8-8 8 8"></path>
    </symbol>
    <symbol id="icon-pagination-left" viewBox="0 0 32 32">
        <path d="M14.134 16.947c-0.125-0.124-0.224-0.271-0.292-0.434s-0.103-0.337-0.103-0.513 0.035-0.35 0.103-0.513c0.068-0.162 0.167-0.31 0.292-0.434l6.12-6.107c0.125-0.124 0.224-0.271 0.292-0.434s0.103-0.337 0.103-0.513-0.035-0.35-0.103-0.513c-0.068-0.162-0.167-0.31-0.292-0.434-0.25-0.248-0.588-0.388-0.94-0.388s-0.69 0.139-0.94 0.388l-6.12 6.12c-0.749 0.75-1.17 1.767-1.17 2.827s0.421 2.077 1.17 2.827l6.12 6.12c0.248 0.246 0.584 0.385 0.933 0.387 0.175 0.001 0.349-0.033 0.512-0.099s0.31-0.164 0.435-0.288c0.125-0.124 0.224-0.271 0.292-0.434s0.103-0.337 0.103-0.513-0.035-0.35-0.103-0.513c-0.068-0.162-0.167-0.31-0.292-0.434l-6.12-6.107z"></path>
    </symbol>
    <symbol id="icon-pagination-right" viewBox="0 0 32 32">
        <path d="M17.867 16.947c0.125-0.124 0.224-0.271 0.292-0.434s0.103-0.337 0.103-0.513-0.035-0.35-0.103-0.513c-0.068-0.163-0.167-0.31-0.292-0.434l-6.12-6.107c-0.125-0.124-0.224-0.271-0.292-0.434s-0.103-0.337-0.103-0.513c0-0.176 0.035-0.35 0.103-0.513s0.167-0.31 0.292-0.434c0.25-0.248 0.588-0.388 0.94-0.388s0.69 0.139 0.94 0.388l6.12 6.12c0.749 0.75 1.17 1.767 1.17 2.827s-0.421 2.077-1.17 2.827l-6.12 6.12c-0.248 0.246-0.584 0.385-0.933 0.387-0.175 0.001-0.349-0.033-0.512-0.099s-0.31-0.164-0.435-0.288c-0.125-0.124-0.224-0.271-0.292-0.434s-0.103-0.337-0.103-0.513c0-0.176 0.035-0.35 0.103-0.513s0.167-0.31 0.292-0.434l6.12-6.107z"></path>
    </symbol>
    <symbol id="icon-heart-1" viewBox="0 0 32 32">
        <path fill="none" stroke="#f6b83d" style="stroke: var(--color1, #f6b83d)" stroke-linejoin="round" stroke-linecap="round" stroke-miterlimit="4" stroke-width="2.6667" d="M27.787 6.147c-0.681-0.681-1.49-1.222-2.38-1.591s-1.844-0.559-2.807-0.559c-0.963 0-1.917 0.19-2.807 0.559s-1.698 0.909-2.38 1.591l-1.413 1.413-1.413-1.413c-1.376-1.376-3.241-2.148-5.187-2.148s-3.811 0.773-5.187 2.148c-1.376 1.376-2.148 3.241-2.148 5.187s0.773 3.811 2.148 5.187l11.787 11.787 11.787-11.787c0.681-0.681 1.222-1.49 1.591-2.38s0.559-1.844 0.559-2.807c0-0.963-0.19-1.917-0.559-2.807s-0.909-1.699-1.591-2.38z"></path>
    </symbol>
    <symbol id="icon-upload-cloud" viewBox="0 0 32 32">
        <path fill="none" stroke="#f6b83d" style="stroke: var(--color1, #f6b83d)" stroke-linejoin="round" stroke-linecap="round" stroke-miterlimit="4" stroke-width="2.3111" d="M16 16v12"></path>
        <path fill="none" stroke="#f6b83d" style="stroke: var(--color1, #f6b83d)" stroke-linejoin="round" stroke-linecap="round" stroke-miterlimit="4" stroke-width="2.3111" d="M27.187 24.52c1.3-0.709 2.328-1.831 2.92-3.188s0.715-2.874 0.35-4.309-1.198-2.708-2.367-3.618c-1.169-0.909-2.608-1.404-4.089-1.405h-1.68c-0.404-1.561-1.156-3.010-2.2-4.239s-2.353-2.204-3.829-2.854c-1.476-0.65-3.079-0.956-4.691-0.897s-3.188 0.483-4.612 1.24c-1.424 0.756-2.658 1.826-3.609 3.128s-1.595 2.803-1.882 4.389c-0.288 1.587-0.212 3.217 0.222 4.77s1.213 2.988 2.281 4.196"></path>
        <path fill="none" stroke="#f6b83d" style="stroke: var(--color1, #f6b83d)" stroke-linejoin="round" stroke-linecap="round" stroke-miterlimit="4" stroke-width="2.3111" d="M21.333 21.333l-5.333-5.333-5.333 5.333"></path>
    </symbol>
    <symbol id="icon-paw" viewBox="0 0 34 32">
        <path fill="#f6b83d" style="fill: var(--color1, #f6b83d)" d="M12.065 0c-1.519 0-2.842 0.863-3.682 2.041s-1.286 2.7-1.286 4.346c0 1.646 0.446 3.169 1.286 4.347s2.163 2.040 3.682 2.040 2.841-0.863 3.682-2.041c0.84-1.178 1.286-2.7 1.286-4.346s-0.446-3.169-1.286-4.348c-0.84-1.178-2.163-2.040-3.682-2.040zM17.032 6.387c0 1.646 0.446 3.169 1.286 4.347s2.164 2.040 3.682 2.040c1.519 0 2.842-0.863 3.682-2.041s1.286-2.7 1.286-4.346-0.446-3.169-1.286-4.348c-0.84-1.178-2.163-2.040-3.682-2.040s-2.842 0.863-3.682 2.041c-0.84 1.178-1.286 2.7-1.286 4.346zM12.065 2.839c0.443 0 0.931 0.221 1.377 0.843 0.44 0.62 0.752 1.608 0.752 2.705s-0.312 2.086-0.752 2.705c-0.446 0.622-0.934 0.843-1.377 0.843s-0.931-0.221-1.377-0.843c-0.44-0.62-0.752-1.608-0.752-2.705s0.312-2.086 0.752-2.705c0.446-0.622 0.934-0.843 1.377-0.843zM22 2.839c0.443 0 0.931 0.221 1.377 0.843 0.44 0.62 0.752 1.608 0.752 2.705s-0.312 2.086-0.752 2.705c-0.446 0.622-0.934 0.843-1.377 0.843s-0.931-0.221-1.377-0.843c-0.44-0.62-0.752-1.608-0.752-2.705s0.312-2.086 0.752-2.705c0.446-0.622 0.934-0.843 1.377-0.843zM4.968 9.935c-1.519 0-2.842 0.863-3.682 2.041s-1.286 2.7-1.286 4.346 0.446 3.169 1.286 4.347c0.84 1.178 2.163 2.040 3.682 2.040s2.842-0.863 3.682-2.041c0.84-1.178 1.286-2.7 1.286-4.346s-0.446-3.169-1.286-4.347c-0.84-1.178-2.163-2.040-3.682-2.040zM29.097 9.935c-1.519 0-2.842 0.863-3.682 2.041s-1.286 2.7-1.286 4.346 0.446 3.169 1.286 4.347c0.84 1.178 2.163 2.040 3.682 2.040s2.842-0.863 3.682-2.041c0.84-1.178 1.286-2.7 1.286-4.346s-0.446-3.169-1.286-4.347c-0.84-1.178-2.163-2.040-3.682-2.040zM4.968 12.774c0.443 0 0.931 0.221 1.377 0.843 0.44 0.62 0.752 1.608 0.752 2.705s-0.312 2.087-0.752 2.705c-0.446 0.622-0.934 0.843-1.377 0.843s-0.931-0.221-1.377-0.843c-0.44-0.619-0.752-1.608-0.752-2.705s0.312-2.086 0.752-2.705c0.446-0.622 0.934-0.843 1.377-0.843zM29.097 12.774c0.443 0 0.931 0.221 1.377 0.843 0.44 0.62 0.752 1.608 0.752 2.705s-0.312 2.087-0.752 2.705c-0.446 0.622-0.934 0.843-1.377 0.843s-0.931-0.221-1.377-0.843c-0.44-0.62-0.752-1.608-0.752-2.705s0.312-2.086 0.752-2.705c0.446-0.622 0.934-0.843 1.377-0.843zM17.032 15.613c-1.892 0-3.212 1.228-3.861 2.306-0.644 1.079-1.042 1.976-1.419 2.35-0.217 0.223-1.587 0.738-3.015 1.466-0.714 0.365-1.434 0.852-2.040 1.597-0.61 0.745-1.022 1.774-1.022 2.928 0 2.725 2.243 4.968 4.968 4.968 1.229 0 2.512-0.397 3.768-0.752 1.262-0.363 2.62-0.67 2.62-0.67s1.358 0.307 2.617 0.667c1.258 0.355 2.541 0.752 3.77 0.752 2.725 0 4.968-2.243 4.968-4.968 0-1.127-0.416-2.157-1.022-2.881-0.603-0.728-1.33-1.178-2.038-1.554-1.419-0.752-2.815-1.348-3.016-1.553-0.341-0.336-0.724-1.263-1.377-2.348-0.651-1.089-2-2.309-3.902-2.309zM17.032 18.452c0.937 0 1.040 0.227 1.462 0.931 0.426 0.703 0.744 1.896 1.774 2.928 1.171 1.164 2.65 1.419 3.727 1.993 0.539 0.287 0.951 0.592 1.198 0.887 0.246 0.294 0.355 0.562 0.355 1.065 0 1.192-0.937 2.129-2.129 2.129-0.412 0-1.737-0.312-2.972-0.667-1.235-0.351-2.257-0.752-3.415-0.752s-2.18 0.402-3.415 0.752c-1.235 0.355-2.56 0.667-2.972 0.667-1.192 0-2.129-0.937-2.129-2.129 0-0.572 0.119-0.866 0.355-1.155 0.236-0.288 0.67-0.573 1.198-0.842 1.056-0.539 2.526-0.752 3.726-1.952 1.040-1.046 1.353-2.278 1.774-2.974 0.414-0.696 0.514-0.887 1.462-0.887l0.001 0.006z"></path>
    </symbol>
    <symbol id="icon-trash-2" viewBox="0 0 32 32">
        <path fill="none" stroke="#f6b83d" style="stroke: var(--color1, #f6b83d)" stroke-linejoin="round" stroke-linecap="round" stroke-miterlimit="4" stroke-width="2.6667" d="M4 8h24"></path>
        <path fill="none" stroke="#f6b83d" style="stroke: var(--color1, #f6b83d)" stroke-linejoin="round" stroke-linecap="round" stroke-miterlimit="4" stroke-width="2.6667" d="M25.333 8v18.667c0 0.707-0.281 1.386-0.781 1.886s-1.178 0.781-1.886 0.781h-13.333c-0.707 0-1.386-0.281-1.886-0.781s-0.781-1.178-0.781-1.886v-18.667M10.667 8v-2.667c0-0.707 0.281-1.386 0.781-1.886s1.178-0.781 1.886-0.781h5.333c0.707 0 1.386 0.281 1.886 0.781s0.781 1.178 0.781 1.886v2.667"></path>
        <path fill="none" stroke="#f6b83d" style="stroke: var(--color1, #f6b83d)" stroke-linejoin="round" stroke-linecap="round" stroke-miterlimit="4" stroke-width="2.6667" d="M13.333 14.667v8"></path>
        <path fill="none" stroke="#f6b83d" style="stroke: var(--color1, #f6b83d)" stroke-linejoin="round" stroke-linecap="round" stroke-miterlimit="4" stroke-width="2.6667" d="M18.667 14.667v8"></path>
    </symbol>
    <symbol id="icon-edit-2" viewBox="0 0 32 32">
        <path fill="none" stroke="#f6b83d" style="stroke: var(--color1, #f6b83d)" stroke-linejoin="round" stroke-linecap="round" stroke-miterlimit="4" stroke-width="2.6667" d="M22.667 4c0.35-0.35 0.766-0.628 1.223-0.817s0.948-0.287 1.443-0.287c0.495 0 0.986 0.098 1.443 0.287s0.873 0.467 1.223 0.817c0.35 0.35 0.628 0.766 0.817 1.224s0.287 0.948 0.287 1.443c0 0.495-0.098 0.986-0.287 1.443s-0.467 0.873-0.817 1.223l-18 18-7.333 2 2-7.333 18-18z"></path>
    </symbol>
    <symbol id="icon-Group-1" viewBox="0 0 32 32">
        <path fill="#f6b83d" style="fill: var(--color1, #f6b83d)" d="M10.259 8.436c-1.276-0.498-2.68-0.561-3.996-0.18s-2.468 1.187-3.279 2.291c-0.811 1.104-1.235 2.444-1.206 3.813s0.509 2.691 1.365 3.759c0.857 1.069 2.042 1.825 3.372 2.151s2.731 0.204 3.985-0.348c1.254-0.551 2.29-1.501 2.949-2.702s0.903-2.585 0.694-3.939c-0.018-0.115-0.013-0.233 0.015-0.346s0.078-0.22 0.147-0.314c0.069-0.094 0.156-0.174 0.256-0.234s0.21-0.101 0.326-0.119c0.115-0.018 0.233-0.013 0.346 0.015s0.22 0.078 0.314 0.147c0.094 0.069 0.174 0.156 0.234 0.256s0.101 0.21 0.119 0.326c0.268 1.74-0.046 3.52-0.893 5.064s-2.18 2.765-3.792 3.473c-1.612 0.709-3.413 0.865-5.123 0.446s-3.234-1.391-4.335-2.765c-1.101-1.374-1.718-3.073-1.755-4.833s0.508-3.484 1.551-4.903c1.043-1.419 2.524-2.454 4.215-2.945s3.497-0.41 5.137 0.231c0.11 0.041 0.211 0.104 0.297 0.185s0.155 0.177 0.203 0.285c0.048 0.107 0.074 0.223 0.077 0.341s-0.018 0.235-0.061 0.344c-0.043 0.11-0.107 0.21-0.189 0.294s-0.179 0.152-0.288 0.199c-0.108 0.047-0.224 0.071-0.342 0.072s-0.234-0.020-0.343-0.064z"></path>
        <path fill="#f6b83d" style="fill: var(--color1, #f6b83d)" d="M7.108 29.334v-7.108c0-0.236 0.094-0.462 0.26-0.628s0.393-0.26 0.628-0.26c0.236 0 0.462 0.094 0.628 0.26s0.26 0.393 0.26 0.628v7.108c0 0.236-0.094 0.462-0.26 0.628s-0.393 0.26-0.628 0.26c-0.236 0-0.462-0.094-0.628-0.26s-0.26-0.393-0.26-0.628z"></path>
        <path fill="#f6b83d" style="fill: var(--color1, #f6b83d)" d="M4.443 24.891c0-0.236 0.094-0.462 0.26-0.628s0.393-0.26 0.628-0.26h5.331c0.236 0 0.462 0.094 0.628 0.26s0.26 0.393 0.26 0.628c0 0.236-0.094 0.462-0.26 0.628s-0.393 0.26-0.628 0.26h-5.331c-0.236 0-0.462-0.093-0.628-0.26s-0.26-0.393-0.26-0.628zM20.349 8.243c-0.985-0.278-2.023-0.309-3.022-0.090s-1.929 0.681-2.707 1.346c-0.778 0.665-1.38 1.511-1.753 2.464s-0.505 1.983-0.384 2.999c0.014 0.116 0.006 0.234-0.026 0.347s-0.085 0.218-0.157 0.31c-0.072 0.092-0.162 0.169-0.264 0.227s-0.214 0.094-0.331 0.108c-0.116 0.014-0.234 0.005-0.347-0.027s-0.218-0.086-0.31-0.158c-0.092-0.073-0.168-0.163-0.225-0.265s-0.093-0.215-0.106-0.331c-0.208-1.749 0.168-3.517 1.068-5.030s2.275-2.688 3.91-3.34c1.636-0.652 3.441-0.747 5.135-0.269s3.184 1.503 4.237 2.914c1.053 1.411 1.611 3.131 1.587 4.891s-0.629 3.464-1.72 4.846c-1.091 1.382-2.608 2.365-4.315 2.797s-3.509 0.288-5.126-0.409c-0.107-0.046-0.204-0.113-0.286-0.197s-0.145-0.183-0.189-0.291c-0.087-0.219-0.084-0.463 0.009-0.68s0.269-0.387 0.488-0.474c0.219-0.087 0.464-0.084 0.68 0.010 0.782 0.337 1.624 0.509 2.476 0.508s1.693-0.179 2.473-0.519c0.78-0.34 1.482-0.837 2.063-1.46s1.027-1.358 1.311-2.16c0.285-0.802 0.402-1.654 0.344-2.503s-0.289-1.678-0.68-2.434-0.933-1.424-1.593-1.962c-0.659-0.538-1.422-0.935-2.241-1.167z"></path>
        <path fill="#f6b83d" style="fill: var(--color1, #f6b83d)" d="M23.807 9.97c-0.167-0.167-0.26-0.393-0.26-0.628s0.094-0.462 0.26-0.628l6.664-6.664c0.082-0.085 0.18-0.153 0.289-0.199s0.225-0.071 0.343-0.072c0.118-0.001 0.235 0.021 0.344 0.066s0.208 0.111 0.292 0.194c0.084 0.083 0.149 0.183 0.194 0.292s0.067 0.226 0.066 0.344c-0.001 0.118-0.026 0.235-0.072 0.343s-0.114 0.206-0.199 0.288l-6.664 6.664c-0.167 0.167-0.393 0.26-0.628 0.26s-0.462-0.094-0.628-0.26z"></path>
        <path fill="#f6b83d" style="fill: var(--color1, #f6b83d)" d="M31.031 8.009c-0.117-0.002-0.232-0.026-0.339-0.072s-0.204-0.113-0.286-0.196c-0.081-0.084-0.146-0.182-0.189-0.291s-0.065-0.224-0.063-0.341l0.044-3.531-3.531 0.044c-0.236 0.003-0.463-0.088-0.632-0.252s-0.265-0.389-0.268-0.625 0.088-0.463 0.252-0.632c0.164-0.169 0.389-0.265 0.625-0.268l5.354-0.068-0.068 5.354c-0.002 0.117-0.026 0.232-0.072 0.339s-0.113 0.204-0.196 0.286c-0.084 0.081-0.182 0.146-0.291 0.189s-0.224 0.065-0.341 0.063z"></path>
    </symbol>
    <symbol id="icon-female" viewBox="0 0 32 32">
        <path stroke-linejoin="round" stroke-linecap="round" stroke-miterlimit="4" stroke-width="2" d="M16 17.333c3.682 0 6.667-2.985 6.667-6.667s-2.985-6.667-6.667-6.667c-3.682 0-6.667 2.985-6.667 6.667s2.985 6.667 6.667 6.667zM16 17.333v10.667M12 24h8"></path>
    </symbol>
    <symbol id="icon-male" viewBox="0 0 32 32">
        <path stroke-linejoin="round" stroke-linecap="round" stroke-miterlimit="4" stroke-width="2" d="M16 14.667c-3.682 0-6.667 2.985-6.667 6.667s2.985 6.667 6.667 6.667c3.682 0 6.667-2.985 6.667-6.667s-2.985-6.667-6.667-6.667zM16 14.667v-10.667M16 4l5.333 5.333M16 4l-5.333 5.333"></path>
    </symbol>
</svg>